# xmcd
#
# Track frame offsets:
#	150
#	13212
#	28437
#	45850
#	61112
#	76282
#	96645
#	114677
#	130677
#	141920
#	157062
#	171470
#
# Disc length: 2541 seconds
#
# Revision: 3
# Processed by: cddbd v1.5.2PL0 Copyright (c) Steve Scherf et al.
# Submitted via: EZCDAudioConverter 2.1.5.1
#
DISCID=a809eb0c
DTITLE=Eero Raittinen - Viel‰ v‰h‰n aikaa
DYEAR=1900
DGENRE=
TTITLE0=Lolita
TTITLE1=Tuulen viem‰‰
TTITLE2=Viel‰  v‰h‰n aikaa
TTITLE3=Anna mun
TTITLE4=Kaksi synti‰
TTITLE5=Miss on mun taivas
TTITLE6=Jotain tekeill‰ taas
TTITLE7=Viimeisell‰ asemalla
TTITLE8=Kultainen aurinko
TTITLE9=Korpeen kun karkasin
TTITLE10=Joo m‰  l‰hden pois
TTITLE11=Kuiskitaan
EXTD=
EXTT0=
EXTT1=
EXTT2=
EXTT3=
EXTT4=
EXTT5=
EXTT6=
EXTT7=
EXTT8=
EXTT9=
EXTT10=
EXTT11=
PLAYORDER=
